<svg width="32" height="32" viewBox="0 0 32 32" fill="none" xmlns="http://www.w3.org/2000/svg">
<rect width="32" height="32" rx="4" fill="#1A1919"/>
<path d="M23.1987 7.88672V27.6336H19.2192L12.793 15.2782V27.6336H8.88379V7.88672H12.807L19.2895 20.3777V7.88672H23.1987Z" fill="white"/>
<path d="M8.7998 4.38728C8.7998 3.79749 8.98158 3.31205 9.34513 2.93096C9.71755 2.54079 10.2185 2.3457 10.8481 2.3457C11.4688 2.3457 11.9609 2.53625 12.3245 2.91735C12.688 3.29844 12.8698 3.78388 12.8698 4.37367C12.8698 4.96346 12.688 5.45344 12.3245 5.84361C11.9609 6.22471 11.4688 6.41525 10.8481 6.41525C10.2185 6.41525 9.71755 6.22471 9.34513 5.84361C8.98158 5.45344 8.7998 4.968 8.7998 4.38728Z" fill="white"/>
</svg>
