<svg width="16" height="17" viewBox="0 0 16 17" fill="none" xmlns="http://www.w3.org/2000/svg">
<rect y="0.388672" width="16" height="16" rx="2" fill="#1A1919"/>
<path d="M11.5999 4.33203V14.2055H9.61011L6.39698 8.02779V14.2055H4.44238V4.33203H6.40401L9.64526 10.5775V4.33203H11.5999Z" fill="white"/>
<path d="M4.40039 2.58231C4.40039 2.28742 4.49106 2.0447 4.67238 1.85415C4.85814 1.65907 5.10802 1.56152 5.42202 1.56152C5.73161 1.56152 5.97707 1.6568 6.1584 1.84734C6.33973 2.03789 6.43039 2.28061 6.43039 2.57551C6.43039 2.8704 6.33973 3.11539 6.1584 3.31048C5.97707 3.50103 5.73161 3.5963 5.42202 3.5963C5.10802 3.5963 4.85814 3.50103 4.67238 3.31048C4.49106 3.11539 4.40039 2.87267 4.40039 2.58231Z" fill="white"/>
</svg>
