<svg width="104" height="30" viewBox="0 0 104 30" fill="none" xmlns="http://www.w3.org/2000/svg">
<path d="M94.6705 21.1447L94.6702 15.5051C94.6702 15.1887 94.6315 14.9368 94.554 14.7496C94.483 14.5623 94.3732 14.4267 94.2247 14.3428C94.0826 14.2524 93.9083 14.2072 93.7016 14.2072C93.4692 14.2072 93.2755 14.2556 93.1205 14.3524C92.9655 14.4493 92.8493 14.5881 92.7718 14.7689C92.7008 14.9497 92.6652 15.1661 92.6652 15.4179H89.9435C89.9435 14.9659 90.0307 14.5397 90.205 14.1394C90.3794 13.7325 90.6344 13.3774 90.9702 13.0739C91.3124 12.764 91.7193 12.5218 92.1906 12.3475C92.662 12.1731 93.1915 12.0859 93.7791 12.0859C94.4765 12.0859 95.0964 12.2054 95.6388 12.4443C96.1812 12.6768 96.6106 13.0481 96.927 13.5582C97.2434 14.0683 97.4017 14.7302 97.4017 15.5438L97.402 21.0091C97.402 21.5967 97.431 22.0745 97.4891 22.4426C97.5537 22.8106 97.6473 23.1271 97.77 23.3918V23.5565H95.0386C94.9159 23.2659 94.8223 22.9043 94.7577 22.4716C94.6996 22.0325 94.6705 21.5902 94.6705 21.1447ZM94.9998 17.1541L95.0095 18.7813H94.0119C93.7536 18.7813 93.5276 18.8233 93.3339 18.9072C93.1466 18.9912 92.9884 19.1106 92.8593 19.2656C92.7301 19.4141 92.6333 19.5885 92.5687 19.7886C92.5106 19.9888 92.4815 20.2019 92.4815 20.4279C92.4815 20.6797 92.517 20.8928 92.5881 21.0672C92.6591 21.2415 92.7656 21.3739 92.9077 21.4643C93.0497 21.5547 93.2176 21.5999 93.4114 21.5999C93.7084 21.5999 93.9667 21.5386 94.1862 21.4159C94.4058 21.2932 94.5672 21.1447 94.6705 20.9703C94.7803 20.796 94.8158 20.6345 94.7771 20.486L95.397 21.5418C95.3195 21.7807 95.2129 22.0293 95.0773 22.2876C94.9482 22.5459 94.7835 22.7848 94.5834 23.0044C94.3832 23.2239 94.1346 23.4047 93.8375 23.5468C93.547 23.6824 93.2015 23.7502 92.8011 23.7502C92.2394 23.7502 91.726 23.621 91.2611 23.3627C90.7962 23.1045 90.4281 22.7428 90.1569 22.2779C89.8921 21.813 89.7598 21.2609 89.7598 20.6216C89.7598 20.0921 89.8437 19.6143 90.0116 19.1881C90.1859 18.7555 90.4442 18.3906 90.7865 18.0936C91.1287 17.7901 91.5613 17.5577 92.0844 17.3962C92.6074 17.2348 93.2209 17.1541 93.9247 17.1541H94.9998Z" fill="#1A1919"/>
<path d="M89.3662 12.2795V14.3232H84.0195V12.2795H89.3662ZM85.2496 9.69336H87.952V20.4345C87.952 20.7251 87.9811 20.9479 88.0392 21.1028C88.0973 21.2578 88.1845 21.3676 88.3007 21.4322C88.4234 21.4903 88.5816 21.5193 88.7753 21.5193C88.9174 21.5193 89.0465 21.5129 89.1628 21.5C89.279 21.4806 89.3662 21.4612 89.4243 21.4418V23.5631C89.2112 23.647 88.9852 23.7116 88.7463 23.7568C88.5138 23.802 88.2361 23.8246 87.9133 23.8246C87.3773 23.8246 86.9092 23.7213 86.5088 23.5146C86.1085 23.308 85.7985 22.9787 85.579 22.5267C85.3594 22.0682 85.2496 21.4677 85.2496 20.7251V9.69336Z" fill="#1A1919"/>
<path d="M62.9333 21.7351L64.6186 12.2803H67.4469L64.5702 23.8272H62.8752L62.9333 21.7351ZM61.9356 12.2803L63.65 21.7447L63.6791 23.8272H61.9744L59.0977 12.2803H61.9356Z" fill="#1A1919"/>
<path d="M50.6348 18.7329V17.171C50.6348 16.351 50.7316 15.6245 50.9253 14.9917C51.1255 14.3589 51.4096 13.8294 51.7777 13.4032C52.1458 12.9706 52.5881 12.6445 53.1047 12.4249C53.6277 12.1989 54.2121 12.0859 54.8578 12.0859C55.51 12.0859 56.0944 12.1989 56.611 12.4249C57.134 12.6445 57.5796 12.9706 57.9476 13.4032C58.3222 13.8294 58.6095 14.3589 58.8097 14.9917C59.0099 15.6245 59.1099 16.351 59.1099 17.171V18.7329C59.1099 19.5465 59.0099 20.2697 58.8097 20.9026C58.6095 21.5354 58.3222 22.0681 57.9476 22.5007C57.5796 22.9334 57.1372 23.2595 56.6207 23.479C56.1041 23.6986 55.5229 23.8083 54.8772 23.8083C54.2315 23.8083 53.6471 23.6986 53.124 23.479C52.6075 23.2595 52.1619 22.9334 51.7874 22.5007C51.4129 22.0681 51.1255 21.5354 50.9253 20.9026C50.7316 20.2697 50.6348 19.5465 50.6348 18.7329ZM53.3468 17.171V18.7329C53.3468 19.2172 53.3791 19.6369 53.4437 19.9921C53.5147 20.3472 53.6148 20.641 53.7439 20.8735C53.8795 21.106 54.041 21.2771 54.2282 21.3869C54.4155 21.4966 54.6318 21.5515 54.8772 21.5515C55.1226 21.5515 55.3421 21.4966 55.5358 21.3869C55.7296 21.2771 55.8878 21.106 56.0104 20.8735C56.1396 20.641 56.2332 20.3472 56.2913 19.9921C56.3559 19.6369 56.3882 19.2172 56.3882 18.7329V17.171C56.3882 16.6997 56.3527 16.2864 56.2817 15.9312C56.2106 15.5696 56.1105 15.2758 55.9814 15.0498C55.8522 14.8174 55.6908 14.643 55.4971 14.5268C55.3098 14.4041 55.0967 14.3428 54.8578 14.3428C54.6189 14.3428 54.4058 14.4041 54.2186 14.5268C54.0377 14.643 53.8795 14.8174 53.7439 15.0498C53.6148 15.2758 53.5147 15.5696 53.4437 15.9312C53.3791 16.2864 53.3468 16.6997 53.3468 17.171Z" fill="#1A1919"/>
<path d="M44.671 14.5171V23.8233H41.9492V12.2797H44.4966L44.671 14.5171ZM44.2642 17.1614L43.5377 17.1807C43.5248 16.3929 43.5991 15.6859 43.7605 15.0595C43.9284 14.4332 44.1673 13.9004 44.4772 13.4613C44.7872 13.0158 45.1553 12.6768 45.5814 12.4443C46.0076 12.2054 46.4887 12.0859 47.0246 12.0859C47.425 12.0859 47.7931 12.157 48.1288 12.299C48.4711 12.4411 48.7649 12.6671 49.0103 12.977C49.2556 13.287 49.4461 13.697 49.5817 14.2072C49.7173 14.7173 49.7851 15.3469 49.7851 16.0959V23.8233H47.0634V16.0765C47.0634 15.6245 47.0182 15.2758 46.9278 15.0305C46.8374 14.7786 46.7018 14.6043 46.521 14.5074C46.3466 14.4041 46.1206 14.3524 45.843 14.3524C45.5847 14.3524 45.3554 14.4267 45.1553 14.5752C44.9551 14.7173 44.7872 14.9142 44.6516 15.1661C44.5224 15.4179 44.4224 15.7149 44.3513 16.0572C44.2868 16.3994 44.2577 16.7675 44.2642 17.1614Z" fill="#1A1919"/>
<path d="M35.7354 14.5171V23.8233H33.0137V12.2797H35.5611L35.7354 14.5171ZM35.3286 17.1614L34.6022 17.1807C34.5892 16.3929 34.6635 15.6859 34.8249 15.0595C34.9928 14.4332 35.2317 13.9004 35.5417 13.4613C35.8516 13.0158 36.2197 12.6768 36.6459 12.4443C37.0721 12.2054 37.5531 12.0859 38.0891 12.0859C38.4894 12.0859 38.8575 12.157 39.1933 12.299C39.5355 12.4411 39.8293 12.6671 40.0747 12.977C40.3201 13.287 40.5106 13.697 40.6462 14.2072C40.7818 14.7173 40.8496 15.3469 40.8496 16.0959V23.8233H38.1278V16.0765C38.1278 15.6245 38.0826 15.2758 37.9922 15.0305C37.9018 14.7786 37.7662 14.6043 37.5854 14.5074C37.4111 14.4041 37.1851 14.3524 36.9074 14.3524C36.6491 14.3524 36.4199 14.4267 36.2197 14.5752C36.0195 14.7173 35.8516 14.9142 35.716 15.1661C35.5869 15.4179 35.4868 15.7149 35.4158 16.0572C35.3512 16.3994 35.3221 16.7675 35.3286 17.1614Z" fill="#1A1919"/>
<path d="M31.7481 8.65918V23.8257H29.0264V8.65918H31.7481Z" fill="#1A1919"/>
<path fill-rule="evenodd" clip-rule="evenodd" d="M80.8492 20.0377C80.9719 20.1912 81.0333 20.3655 81.0333 20.5609C81.0333 20.7701 80.9913 20.955 80.9073 21.1154C80.8234 21.2688 80.6975 21.3839 80.5296 21.4607C80.3682 21.5304 80.1615 21.5653 79.9097 21.5653L72.4839 21.5677C72.0642 21.5677 71.7058 21.4966 71.4088 21.3546C71.1182 21.2125 70.8825 21.0156 70.7017 20.7637C70.5209 20.5054 70.3853 20.2019 70.2949 19.8532C70.2339 19.5949 70.195 19.3195 70.1784 19.0271H75.6222V17.4726C75.6222 16.7107 75.5381 15.6826 75.3702 15.0692C75.2023 14.4493 74.9537 13.9166 74.6244 13.471C74.2951 13.0255 73.8786 12.6832 73.3749 12.4443C72.8777 12.2054 72.2998 12.0859 71.6411 12.0859C70.9825 12.0859 70.3917 12.2183 69.8686 12.4831C69.352 12.7478 68.9129 13.1191 68.5513 13.5969C68.1962 14.0683 67.9218 14.6333 67.728 15.292C67.5408 15.9442 67.4473 16.8127 67.4473 17.5941V18.7006C67.4473 19.4238 67.5506 20.0954 67.7572 20.7153C67.9703 21.3352 68.277 21.8776 68.6774 22.3425C69.0777 22.8075 69.5653 23.1723 70.1399 23.437C70.7146 23.6953 71.3668 23.8245 72.0965 23.8245L79.8613 23.8253C80.436 23.8253 80.9558 23.745 81.4207 23.5846C81.8921 23.4242 82.2956 23.194 82.6314 22.8941C82.9672 22.5941 83.2223 22.2384 83.3966 21.8269C83.5774 21.4153 83.6678 20.9584 83.6678 20.4562C83.6678 19.8285 83.558 19.3018 83.3385 18.8763C83.119 18.4439 82.7832 18.0672 82.3312 17.7463C81.8856 17.4255 81.3141 17.1255 80.6168 16.8465C80.281 16.7001 79.9969 16.5675 79.7644 16.4489C79.5384 16.3234 79.3576 16.2048 79.222 16.0932C79.0864 15.9816 78.9863 15.8665 78.9217 15.7479C78.8636 15.6294 78.8345 15.4933 78.8345 15.3399C78.8345 15.1376 78.8765 14.9632 78.9605 14.8167C79.0509 14.6633 79.1703 14.5412 79.3188 14.4505C79.4738 14.3599 79.6482 14.3145 79.8419 14.3145C80.1066 14.3145 80.3165 14.3703 80.4715 14.4819C80.6329 14.5935 80.7491 14.7505 80.8202 14.9528C80.8912 15.1481 80.9267 15.3713 80.9267 15.6224H83.6388C83.6388 14.9179 83.487 14.3006 83.1835 13.7705C82.88 13.2403 82.4442 12.8288 81.8759 12.5358C81.3141 12.2359 80.6394 12.0859 79.8516 12.0859C79.2898 12.0859 78.7829 12.1766 78.3309 12.358C77.8853 12.5324 77.5076 12.7765 77.1976 13.0904C76.8877 13.3973 76.6488 13.7565 76.4809 14.168C76.3194 14.5726 76.2387 15.0155 76.2387 15.4968C76.2387 15.9432 76.3033 16.3408 76.4324 16.6896C76.5616 17.0384 76.7521 17.3488 77.0039 17.6208C77.2622 17.8928 77.5754 18.1404 77.9434 18.3637C78.3115 18.5869 78.7345 18.8031 79.2123 19.0123C79.6514 19.2146 80.0033 19.3995 80.2681 19.5669C80.5328 19.7273 80.7265 19.8843 80.8492 20.0377ZM72.9586 16.8527H70.1956C70.2081 16.6848 70.2251 16.5219 70.2465 16.364C70.2982 15.983 70.3787 15.5018 70.4885 15.2242C70.5983 14.9465 70.7468 14.7302 70.9341 14.5752C71.1278 14.4202 71.3635 14.3428 71.6411 14.3428C71.9769 14.3428 72.2384 14.4267 72.4257 14.5946C72.6194 14.756 72.755 14.982 72.8325 15.2726C72.9165 15.5567 72.9586 16.0411 72.9586 16.4221V16.8527Z" fill="#1A1919"/>
<rect x="4" y="3" width="22" height="24" rx="3" fill="#1A1919"/>
<path d="M20.7292 8.91602V23.7262H17.5628L12.4494 14.4596V23.7262H9.33887V8.91602H12.4606L17.6187 18.2842V8.91602H20.7292Z" fill="white"/>
<path d="M9.27148 6.29095C9.27148 5.84861 9.4077 5.48453 9.68014 5.19871C9.95923 4.90608 10.3347 4.75977 10.8065 4.75977C11.2716 4.75977 11.6404 4.90268 11.9128 5.1885C12.1853 5.47432 12.3215 5.8384 12.3215 6.28074C12.3215 6.72309 12.1853 7.09057 11.9128 7.3832C11.6404 7.66902 11.2716 7.81193 10.8065 7.81193C10.3347 7.81193 9.95923 7.66902 9.68014 7.3832C9.4077 7.09057 9.27148 6.72649 9.27148 6.29095Z" fill="white"/>
</svg>
