<svg width="52" height="52" viewBox="0 0 52 52" fill="none" xmlns="http://www.w3.org/2000/svg">
<path d="M25.9997 47.6673C14.0332 47.6673 4.33301 37.9672 4.33301 26.0007C4.33301 14.0342 14.0332 4.33398 25.9997 4.33398C37.9662 4.33398 47.6663 14.0342 47.6663 26.0007C47.6663 37.9672 37.9662 47.6673 25.9997 47.6673ZM25.9997 43.334C30.5968 43.334 35.0056 41.5078 38.2562 38.2572C41.5068 35.0065 43.333 30.5977 43.333 26.0007C43.333 21.4036 41.5068 16.9948 38.2562 13.7441C35.0056 10.4935 30.5968 8.66732 25.9997 8.66732C21.4026 8.66732 16.9938 10.4935 13.7432 13.7441C10.4925 16.9948 8.66634 21.4036 8.66634 26.0007C8.66634 30.5977 10.4925 35.0065 13.7432 38.2572C16.9938 41.5078 21.4026 43.334 25.9997 43.334ZM23.8395 34.6673L14.6463 25.4742L17.71 22.4105L23.8395 28.54L36.0942 16.2832L39.16 19.3468L23.8395 34.6673Z" fill="#27C30D"/>
</svg>
