<svg width="20" height="18" viewBox="0 0 20 18" fill="none" xmlns="http://www.w3.org/2000/svg">
<path d="M1.74967 0.75H18.2497C18.4928 0.75 18.7259 0.846577 18.8979 1.01849C19.0698 1.19039 19.1663 1.42355 19.1663 1.66667V16.3333C19.1663 16.5764 19.0698 16.8096 18.8979 16.9815C18.7259 17.1534 18.4928 17.25 18.2497 17.25H1.74967C1.50656 17.25 1.2734 17.1534 1.10149 16.9815C0.929585 16.8096 0.833008 16.5764 0.833008 16.3333V1.66667C0.833008 1.42355 0.929585 1.19039 1.10149 1.01849C1.2734 0.846577 1.50656 0.75 1.74967 0.75ZM17.333 4.63483L10.0657 11.1432L2.66634 4.61467V15.4167H17.333V4.63483ZM3.13476 2.58333L10.0556 8.69017L16.8765 2.58333H3.13476Z" fill="#1A1919"/>
</svg>
