<svg width="38" height="38" viewBox="0 0 38 38" fill="none" xmlns="http://www.w3.org/2000/svg">
<rect width="38" height="38" rx="19" fill="#578000"/>
<g clip-path="url(#clip0_579_1637)">
<path d="M14.291 27.824L9.00001 29L10.176 23.709C9.40154 22.2604 8.99754 20.6426 9.00001 19C9.00001 13.477 13.477 9 19 9C24.523 9 29 13.477 29 19C29 24.523 24.523 29 19 29C17.3574 29.0025 15.7396 28.5985 14.291 27.824ZM14.581 25.711L15.234 26.061C16.3926 26.6801 17.6864 27.0027 19 27C20.5823 27 22.129 26.5308 23.4446 25.6518C24.7602 24.7727 25.7855 23.5233 26.391 22.0615C26.9965 20.5997 27.155 18.9911 26.8463 17.4393C26.5376 15.8874 25.7757 14.462 24.6569 13.3431C23.538 12.2243 22.1126 11.4624 20.5607 11.1537C19.0089 10.845 17.4004 11.0035 15.9385 11.609C14.4767 12.2145 13.2273 13.2398 12.3483 14.5554C11.4692 15.871 11 17.4177 11 19C11 20.334 11.325 21.618 11.94 22.766L12.289 23.419L11.634 26.366L14.581 25.711Z" fill="white"/>
</g>
<defs>
<clipPath id="clip0_579_1637">
<rect width="24" height="24" fill="white" transform="translate(7 7)"/>
</clipPath>
</defs>
</svg>
