<svg width="22" height="22" viewBox="0 0 22 22" fill="none" xmlns="http://www.w3.org/2000/svg">
<g clip-path="url(#clip0_579_1621)">
<path d="M16.5281 15.2329L20.4542 19.1581L19.1571 20.4551L15.2319 16.5291C13.7714 17.6999 11.9548 18.3366 10.083 18.334C5.52901 18.334 1.83301 14.638 1.83301 10.084C1.83301 5.52998 5.52901 1.83398 10.083 1.83398C14.637 1.83398 18.333 5.52998 18.333 10.084C18.3357 11.9558 17.6989 13.7724 16.5281 15.2329ZM14.6893 14.5527C15.8526 13.3564 16.5023 11.7527 16.4997 10.084C16.4997 6.53832 13.6278 3.66732 10.083 3.66732C6.53734 3.66732 3.66634 6.53832 3.66634 10.084C3.66634 13.6287 6.53734 16.5006 10.083 16.5006C11.7517 16.5033 13.3554 15.8536 14.5518 14.6902L14.6893 14.5527Z" fill="#1A1919"/>
</g>
<defs>
<clipPath id="clip0_579_1621">
<rect width="22" height="22" fill="white"/>
</clipPath>
</defs>
</svg>
