<svg width="20" height="20" viewBox="0 0 20 20" fill="none" xmlns="http://www.w3.org/2000/svg">
<path d="M9.99967 17.334C11.9446 17.334 13.8099 16.5614 15.1851 15.1861C16.5604 13.8108 17.333 11.9456 17.333 10.0007C17.333 8.05573 16.5604 6.19047 15.1851 4.8152C13.8099 3.43993 11.9446 2.66732 9.99967 2.66732C8.05475 2.66732 6.18949 3.43993 4.81422 4.8152C3.43896 6.19047 2.66634 8.05573 2.66634 10.0007C2.66634 11.9456 3.43896 13.8108 4.81422 15.1861C6.18949 16.5614 8.05475 17.334 9.99967 17.334ZM9.99967 19.1673C4.93692 19.1673 0.833008 15.0634 0.833008 10.0007C0.833008 4.9379 4.93692 0.833984 9.99967 0.833984C15.0624 0.833984 19.1663 4.9379 19.1663 10.0007C19.1663 15.0634 15.0624 19.1673 9.99967 19.1673ZM7.14884 11.0732L4.85901 10.3591C4.36401 10.2078 4.36126 9.86682 4.96992 9.62207L13.8918 6.1754C14.4098 5.96457 14.7031 6.23132 14.5353 6.89957L13.0164 14.0679C12.9101 14.5785 12.603 14.7004 12.1768 14.4648L9.83834 12.7342L8.74842 13.7865C8.63659 13.8946 8.54584 13.9872 8.37351 14.0102C8.20209 14.034 8.06092 13.9827 7.95734 13.6985L7.15984 11.0667L7.14884 11.0741V11.0732Z" fill="#1A1919"/>
</svg>
