<svg width="20" height="20" viewBox="0 0 20 20" fill="none" xmlns="http://www.w3.org/2000/svg">
<path d="M9.99967 19.1663C4.93692 19.1663 0.833008 15.0624 0.833008 9.99967C0.833008 4.93692 4.93692 0.833008 9.99967 0.833008C15.0624 0.833008 19.1663 4.93692 19.1663 9.99967C19.1663 15.0624 15.0624 19.1663 9.99967 19.1663ZM9.99967 17.333C11.9446 17.333 13.8099 16.5604 15.1851 15.1851C16.5604 13.8099 17.333 11.9446 17.333 9.99967C17.333 8.05475 16.5604 6.18949 15.1851 4.81422C13.8099 3.43896 11.9446 2.66634 9.99967 2.66634C8.05475 2.66634 6.18949 3.43896 4.81422 4.81422C3.43896 6.18949 2.66634 8.05475 2.66634 9.99967C2.66634 11.9446 3.43896 13.8099 4.81422 15.1851C6.18949 16.5604 8.05475 17.333 9.99967 17.333ZM10.9163 9.99967H14.583V11.833H9.08301V5.41634H10.9163V9.99967Z" fill="#1A1919"/>
</svg>
