<svg width="16" height="16" viewBox="0 0 16 16" fill="none" xmlns="http://www.w3.org/2000/svg">
<path d="M11.4165 3.5H15.1665V5H13.6665V14.75C13.6665 14.9489 13.5875 15.1397 13.4468 15.2803C13.3062 15.421 13.1154 15.5 12.9165 15.5H2.4165C2.21759 15.5 2.02683 15.421 1.88617 15.2803C1.74552 15.1397 1.6665 14.9489 1.6665 14.75V5H0.166504V3.5H3.9165V1.25C3.9165 1.05109 3.99552 0.860322 4.13617 0.71967C4.27683 0.579018 4.46759 0.5 4.6665 0.5H10.6665C10.8654 0.5 11.0562 0.579018 11.1968 0.71967C11.3375 0.860322 11.4165 1.05109 11.4165 1.25V3.5ZM12.1665 5H3.1665V14H12.1665V5ZM5.4165 2V3.5H9.9165V2H5.4165Z" fill="#777777"/>
</svg>
