<svg width="9" height="10" viewBox="0 0 9 10" fill="none" xmlns="http://www.w3.org/2000/svg">
<path d="M1.75001 2.3607V7.6377L6.27251 4.9992L1.75001 2.3607ZM0.814007 0.0792048L8.69501 4.6767C8.75148 4.70977 8.79833 4.75703 8.83088 4.81381C8.86343 4.87058 8.88056 4.93489 8.88056 5.00033C8.88056 5.06577 8.86343 5.13008 8.83088 5.18685C8.79833 5.24363 8.75148 5.29089 8.69501 5.32395L0.814007 9.92145C0.756853 9.95481 0.69189 9.97244 0.625716 9.97257C0.559541 9.9727 0.494512 9.95531 0.437231 9.92217C0.379949 9.88904 0.332456 9.84134 0.299573 9.78391C0.266691 9.72648 0.24959 9.66138 0.250007 9.5952V0.402455C0.249988 0.336472 0.267379 0.271652 0.300423 0.21454C0.333468 0.157429 0.380997 0.110047 0.438211 0.0771792C0.495425 0.0443116 0.560298 0.0271219 0.626281 0.0273459C0.692263 0.0275699 0.757018 0.0451996 0.814007 0.0784549V0.0792048Z" fill="#5E6168"/>
</svg>
