<svg width="20" height="20" viewBox="0 0 20 20" fill="none" xmlns="http://www.w3.org/2000/svg">
<path d="M5.64827 15.9535L6.31194 16.3412C7.43113 16.994 8.70406 17.3366 9.99969 17.334C11.4501 17.334 12.8679 16.9039 14.0739 16.0981C15.2798 15.2923 16.2198 14.147 16.7748 12.807C17.3298 11.467 17.4751 9.99252 17.1921 8.56999C16.9092 7.14746 16.2107 5.84079 15.1851 4.8152C14.1596 3.78962 12.8529 3.09118 11.4303 2.80823C10.0078 2.52527 8.53333 2.67049 7.19334 3.22553C5.85335 3.78058 4.70804 4.72051 3.90224 5.92647C3.09645 7.13243 2.66635 8.55025 2.66635 10.0007C2.66635 11.317 3.01194 12.5792 3.66002 13.6893L4.04685 14.353L3.44827 16.5539L5.64827 15.9535ZM0.836687 19.1673L2.07602 14.6133C1.2594 13.2134 0.830358 11.6213 0.83302 10.0007C0.83302 4.9379 4.93694 0.833984 9.99969 0.833984C15.0624 0.833984 19.1664 4.9379 19.1664 10.0007C19.1664 15.0634 15.0624 19.1673 9.99969 19.1673C8.37973 19.1699 6.78829 18.7412 5.38885 17.9252L0.836687 19.1673ZM6.69144 5.69965C6.81427 5.69048 6.93802 5.69048 7.06085 5.69598C7.11035 5.69965 7.15985 5.70515 7.20935 5.71065C7.3551 5.72715 7.51552 5.81607 7.5696 5.9389C7.84277 6.55857 8.1086 7.18282 8.36527 7.8089C8.4221 7.94823 8.38819 8.12698 8.28002 8.30115C8.20563 8.41892 8.12516 8.53274 8.03894 8.64215C7.93535 8.77507 7.7126 9.0189 7.7126 9.0189C7.7126 9.0189 7.62185 9.12707 7.65669 9.26182C7.66952 9.31315 7.71169 9.3874 7.75019 9.44973L7.80427 9.53682C8.03894 9.92824 8.35427 10.3252 8.73927 10.6992C8.84927 10.8055 8.95652 10.9146 9.07202 11.0163C9.50102 11.3949 9.98685 11.7038 10.5112 11.933L10.5158 11.9348C10.5937 11.9687 10.6331 11.9871 10.7468 12.0357C10.8036 12.0595 10.8623 12.0806 10.9219 12.0962C10.9834 12.1118 11.0483 12.1089 11.1082 12.0877C11.1681 12.0664 11.2203 12.0279 11.2583 11.977C11.9219 11.1731 11.9824 11.1208 11.9879 11.1208V11.1227C12.034 11.0796 12.0888 11.047 12.1486 11.0269C12.2083 11.0069 12.2717 10.9998 12.3344 11.0062C12.3894 11.0099 12.4454 11.02 12.4967 11.0429C12.9834 11.2657 13.78 11.6131 13.78 11.6131L14.3135 11.8523C14.4034 11.8954 14.4849 11.9972 14.4877 12.0952C14.4914 12.1567 14.4969 12.2557 14.4758 12.4372C14.4464 12.6746 14.3749 12.9597 14.3034 13.1091C14.2545 13.211 14.1895 13.3045 14.1109 13.3859C14.0184 13.483 13.9172 13.5714 13.8084 13.6499C13.7708 13.6782 13.7326 13.7057 13.6939 13.7324C13.5798 13.8047 13.4627 13.872 13.3428 13.9341C13.1068 14.0594 12.8461 14.1314 12.5792 14.1449C12.4096 14.1541 12.24 14.1669 12.0695 14.1577C12.0622 14.1577 11.5489 14.078 11.5489 14.078C10.2456 13.7352 9.04029 13.093 8.02885 12.2025C7.82169 12.0201 7.6301 11.8239 7.43394 11.6287C6.6181 10.8174 6.0021 9.94199 5.6281 9.11515C5.43668 8.70933 5.33327 8.2676 5.32469 7.81898C5.32091 7.26243 5.50284 6.72051 5.84169 6.27898C5.9086 6.19282 5.97185 6.10298 6.08094 5.9994C6.19735 5.8894 6.27069 5.83073 6.35044 5.7904C6.45647 5.73726 6.57214 5.70608 6.69052 5.69873L6.69144 5.69965Z" fill="#1A1919"/>
</svg>
